<?xml version="1.0" encoding="UTF-8"?>
<!-- Created with Inkscape (http://www.inkscape.org/) -->
<svg width="1122.5" height="793.7" version="1.1" viewBox="0 0 297 210" xmlns="http://www.w3.org/2000/svg">
 <defs>
  <filter id="filter6904" x="-.25554" y="-.25559" width="1.5111" height="1.5112" color-interpolation-filters="sRGB">
   <feGaussianBlur in="SourceAlpha" result="result0" stdDeviation="2.3"/>
   <feMorphology in="SourceAlpha" radius="6.6" result="result1"/>
   <feGaussianBlur in="result1" stdDeviation="8.9"/>
   <feColorMatrix result="result91" values="1 0 0 0 0 0 1 0 0 0 0 0 1 0 0 0 0 0 0.3 0"/>
   <feComposite in="result0" in2="result91" operator="out" result="result2"/>
   <feGaussianBlur result="result4" stdDeviation="1.7"/>
   <feDiffuseLighting surfaceScale="10">
    <feDistantLight azimuth="225" elevation="45"/>
   </feDiffuseLighting>
   <feBlend in2="SourceGraphic" mode="multiply"/>
   <feComposite in2="SourceAlpha" operator="in" result="result3"/>
   <feSpecularLighting in="result4" specularExponent="17.9" surfaceScale="5">
    <feDistantLight azimuth="225" elevation="45"/>
   </feSpecularLighting>
   <feComposite in2="result3" operator="atop"/>
  </filter>
 </defs>
 <g transform="translate(2.7062 20.973)" fill="#0f0" filter="url(#filter6904)" opacity=".79418" stroke="#00000f" stroke-width="3">
  <path d="m172.99 74.055a21.029 21.029 0 0 0 14.97-6.2018l20.373-20.36c1.6113-1.6113 1.7595-4.2333 0.2249-5.924a4.2333 4.2333 0 0 0-6.1304-0.14817l-18.158 18.145a3.2517 3.2517 0 0 1-4.5958 0c-1.2674-1.2647-1.1986-3.4025 0.0661-4.6672l18.079-18.079a4.2333 4.2333 0 0 0-0.14817-6.1278 4.1328 4.1328 0 0 0-2.7993-1.0716 4.4212 4.4212 0 0 0-3.1247 1.2965l-18.063 18.06a3.2517 3.2517 0 0 1-4.5958 0c-1.2647-1.2647-1.1986-3.4025 0.0661-4.6672l18.079-18.074a4.2333 4.2333 0 0 0-0.14817-6.1278 4.1328 4.1328 0 0 0-2.7993-1.0716 4.4265 4.4265 0 0 0-3.1247 1.2965l-20.36 20.36a21.032 21.032 0 0 0-6.2018 14.973v2.1775a4.2333 4.2333 0 0 1-1.2409 2.9977l-9.4218 9.4245a1.0583 1.0583 0 0 1-1.4975 0l-45.847-45.85a4.2333 4.2333 0 0 0-5.9743-0.01588c-4.0084 3.9714-6.1489 9.5779-6.1489 16.211-0.02646 10.954 5.7309 23.548 15.026 32.83l22.609 22.609a17.142 17.142 0 0 0 12.107 5.0086 16.933 16.933 0 0 0 4.2889-0.55035 4.2968 4.2968 0 0 1 1.0768-0.14022 4.2148 4.2148 0 0 1 2.8654 1.1245l3.0136 2.7834a4.2651 4.2651 0 0 1 1.2171 2.9713v1.4658a12.629 12.629 0 0 0 3.6433 8.9032l23.826 24.228 0.0238 0.0265a14.1 14.1 0 0 0 19.939-19.942l-35.713-35.713a1.0583 1.0583 0 0 1 0-1.4975l9.4218-9.4218a4.2333 4.2333 0 0 1 2.9951-1.2409z"/>
  <path d="m134.21 109.53a25.749 25.749 0 0 1-18.087-7.4745l-3.6671-3.6671a2.1167 2.1167 0 0 0-2.9898 0l-22.49 22.373c-4.0084 4.0084-5.4398 9.9086-3.4555 15.687a8.1042 8.1042 0 0 0 0.39423 0.9525c2.6696 5.4663 7.8502 8.6413 13.518 8.6413a14.732 14.732 0 0 0 10.488-4.3498l29.993-30.136a1.2409 1.2409 0 0 0 0.34925-0.98425v-0.0688a1.225 1.225 0 0 0-1.3626-1.1298 25.688 25.688 0 0 1-2.6908 0.1561z"/>
 </g>
 <g stroke="#fffff0" stroke-width=".56239" aria-label="Yo Cho">
  <path d="m108.73 154.52 1.2957 2.5915 1.4397-2.5915q0.40792-0.74385 0.40792-0.95981 0-0.26395-0.4799-0.5279-0.62388-0.33593-0.62388-1.1518 0-1.7037 1.7277-1.7037 0.55189 0 1.0558 0.072 1.1758 0.16797 1.5837 0.16797 0.43192 0 1.2478-0.11998 0.83983-0.11998 1.2478-0.11998 0.76785 0 1.2238 0.47991 0.47991 0.4799 0.47991 1.2957 0 0.67187-0.35993 1.1278-0.33593 0.43192-0.86383 0.43192-0.21596 0-0.64787-0.096-0.31194-0.072-0.47991-0.072-0.33593 0-0.5039 0.16797t-0.69586 1.0078l-3.1674 5.063q-0.5279 0.86383-0.57589 1.8716l-0.024 0.67187q-0.048 1.1038 0.76785 1.1038 0.26395 0 0.74386-0.072 0.4799-0.096 0.71986-0.096 0.57588 0 0.93581 0.45591 0.38393 0.45591 0.38393 1.1758 0 0.79184-0.47991 1.2478-0.4799 0.45592-1.2957 0.45592-0.59989 0-1.8236-0.11998t-1.8476-0.11998q-0.67186 0-1.9916 0.11998-1.3197 0.11998-1.9916 0.11998-0.79184 0-1.2718-0.47991-0.4799-0.47991-0.4799-1.2478 0-1.6077 1.3677-1.6077 0.23995 0 0.71986 0.096 0.5039 0.072 0.74385 0.072 0.69587 0 0.69587-1.1038v-0.67187q0-0.74385-0.62388-1.7516l-3.5513-5.8309q-0.31193-0.5279-0.81584-0.5279-0.14397 0-0.45591 0.072-0.40792 0.096-0.64787 0.096-1.1518 0-1.1518-1.4637 0-1.8716 1.6797-1.8716 0.43191 0 1.3677 0.11998t1.4397 0.11998q0.67187 0 1.6797-0.14398 0.67187-0.096 1.0798-0.096 1.6317 0 1.6317 1.7996 0 0.74385-0.55189 1.0318-0.33594 0.19196-0.47991 0.26395-0.14397 0.072-0.14397 0.23995v0.072q0 0.21596 0.096 0.38393 0.024 0.096 0.26395 0.55189z"/>
  <path d="m124.43 166.68q-2.9754 0-4.6071-1.6797-1.6077-1.6797-1.6077-4.7271 0-3.0234 1.6077-4.7031 1.6077-1.7037 4.5111-1.7037 2.8554 0 4.4871 1.6797 1.6557 1.6797 1.6557 4.6071 0 3.0714-1.6077 4.7991-1.5837 1.7277-4.4391 1.7277zm-0.096-9.8621q-1.0558 0-1.6797 0.93582-0.59988 0.91182-0.59988 2.5195 0 1.6317 0.59988 2.5435 0.62388 0.91182 1.7277 0.91182 2.2316 0 2.2316-3.4553 0-3.4553-2.2796-3.4553z"/>
  <path d="m144.63 149.84q2.3036 0 4.0072 1.6797-0.024-0.072-0.024-0.23995 0-1.3437 1.4397-1.3437 0.67187 0 1.0798 0.43191 0.43191 0.40792 0.43191 1.0798 0 0.31194-0.072 0.91182-0.11998 0.98381-0.11998 1.4157 0 0.31194 0.072 0.93581 0.096 0.59989 0.096 0.91183 0 0.74385-0.55189 1.1998-0.5279 0.45591-1.3917 0.45591-1.8236 0-1.7756-1.5117l0.024-0.74386q0.024-0.79184-0.64787-1.2957-0.67187-0.5279-1.7037-0.5279-3.2154 0-3.2154 5.087 0 2.6395 0.76785 3.8632 0.79185 1.1998 2.4955 1.1998 1.0558 0 1.7277-0.4799 0.67186-0.50391 0.64787-1.2958l-0.024-0.86383q-0.024-0.74386 0.47991-1.1998 0.5039-0.45591 1.2958-0.45591 1.0078 0 1.5837 0.67187 0.59988 0.67187 0.59988 1.8236 0 2.2796-1.8236 3.7433-1.7996 1.4397-4.6551 1.4397-3.5033 0-5.5429-2.2316-2.0156-2.2316-2.0156-6.0948 0-3.9832 1.8236-6.2628 1.8236-2.3036 4.991-2.3036z"/>
  <path d="m158.59 150.97v4.3911q1.0318-0.88783 1.7277-1.1758 0.69586-0.31194 1.7277-0.31194 2.2316 0 3.1674 1.3917 0.62388 0.93581 0.62388 2.9754v4.1272q0 1.1998 0.4799 1.1998 0.19197 0 0.33594-0.048t0.38392-0.048q1.0558 0 1.0558 1.2238 0 1.6797-1.4157 1.6797-0.40792 0-1.1998-0.096-0.79185-0.096-1.1998-0.096-0.38392 0-1.1518 0.096-0.74386 0.096-1.1278 0.096-0.59988 0-0.98381-0.40792-0.35993-0.40792-0.35993-1.0798 0-1.2238 0.91182-1.2958 0.40792-0.024 0.50391-0.21595 0.096-0.19197 0.096-0.64788v-3.6713q0-1.9916-1.5117-1.9916-2.0636 0-2.0636 2.8554v2.8314q0 0.5039 0.096 0.64787 0.11997 0.11998 0.59988 0.19196 0.74386 0.11998 0.74386 1.1998 0 1.5837-1.3198 1.5837-0.28794 0-1.0318-0.096-0.74386-0.096-1.3677-0.096-0.5039 0-1.0798 0.072-0.95981 0.11998-1.2238 0.11998-0.64787 0-1.0558-0.43192-0.40792-0.45591-0.40792-1.1518 0-1.3677 1.1758-1.3677 0.14397 0 0.38393 0.096 0.26394 0.072 0.40792 0.072 0.40792 0 0.40792-1.3437v-7.9904q0-1.3437-0.40792-1.3437-0.16797 0-0.43192 0.096-0.14397 0.048-0.38392 0.048-1.1518 0-1.1518-1.3197 0-0.71986 0.40792-1.1518 0.40792-0.45591 1.0558-0.45591 0.31194 0 0.91183 0.072 0.59988 0.072 0.91182 0.072 0.74385 0 1.2718-0.072 0.55189-0.072 0.83983-0.072 0.64788 0 0.64788 0.83984z"/>
  <path d="m174.94 166.68q-2.9754 0-4.6071-1.6797-1.6077-1.6797-1.6077-4.7271 0-3.0234 1.6077-4.7031 1.6077-1.7037 4.5111-1.7037 2.8554 0 4.4871 1.6797 1.6557 1.6797 1.6557 4.6071 0 3.0714-1.6077 4.7991-1.5837 1.7277-4.4391 1.7277zm-0.096-9.8621q-1.0558 0-1.6797 0.93582-0.59988 0.91182-0.59988 2.5195 0 1.6317 0.59988 2.5435 0.62388 0.91182 1.7277 0.91182 2.2316 0 2.2316-3.4553 0-3.4553-2.2796-3.4553z"/>
 </g>
</svg>
